<?xml version="1.0" standalone="no"?>
<!DOCTYPE svg PUBLIC "-//W3C//DTD SVG 1.1//EN" "http://www.w3.org/Graphics/SVG/1.1/DTD/svg11.dtd" >
<!--
2013-9-30: Created.
-->
<svg>
<metadata>
Created by iconfont
</metadata>
<defs>

<font id="io" horiz-adv-x="1024" >
  <font-face
    font-family="io"
    font-weight="500"
    font-stretch="normal"
    units-per-em="1024"
    ascent="896"
    descent="-128"
  />
    <missing-glyph />
    
    <glyph glyph-name="links" unicode="&#58946;" d="M1018.40969861 104.69149482c-13.20925115 32.0796097-50.00645048 47.33314987-82.08606018 33.96664525l-34.75291111-14.46727511-60.85690642 160.24079581c75.32418152 55.03854631 101.89993652 157.72474789 54.25228124 240.28256775L758.78501343 761.37997633c-12.58023878 21.85816535-39.47049996 30.97883843-62.90119545 21.38640647L516.14365203 708.22846633 336.40348528 782.7663828c-23.43069549 9.74968546-50.32095668 0.47175888-62.90119545-21.38640648L137.32120112 524.71422852C89.83079854 442.15640868 116.24930082 339.47020709000003 191.57348237 284.58891426L130.71657594 124.34811844000001l-34.75291112 14.46727511c-32.0796097 13.36650384-68.71955633-1.88703554-82.08606018-33.96664602-2.67330062-6.44737248 0.31450618-13.83826274 6.76187867-16.51156336l255.22160096-105.98851535c6.44737248-2.67330062 13.68101003 0.31450618 16.35431142 6.76187868 13.20925115 32.0796097-1.88703554 68.87680905-33.96664603 82.24331367l-34.75291031 14.46727512L285.45351703 248.73523268999998c6.91913135-0.78626507 13.83826274-2.04428903 20.60014141-2.04428903 81.29979512 0 156.30947123 52.05073952 178.32488928 134.13679971l31.7651043 118.56875334 31.76510352-118.56875334c22.01541884-82.08606019 97.02509417-134.13679971 178.3248893-134.13679971 6.76187867 0 13.68101003 1.25802396 20.60014138 2.04428903L808.63421121 85.82113628000002l-34.75291031-14.46727511c-32.0796097-13.36650384-47.33314987-50.16370319-33.96664605-82.24331367 2.67330062-6.44737248 10.06419165-9.43517929 16.35431065-6.76187868L1011.64781995 88.33718417c6.29011978 2.67330062 9.43517929 9.90693816 6.76187866 16.35431065zM446.79508329 531.6333598900001l-176.28060024 73.12263981 57.39734073 99.69839476 148.60407481-61.64317148-29.72081529-111.17786309z m138.69713666 0l-29.72081527 111.17786309 148.60407481 61.64317148 57.39734073-99.69839476-176.28060027-73.12263981z"  horiz-adv-x="1024" />

    
    <glyph glyph-name="huangguan" unicode="&#59058;" d="M450.66039178-54.21176437999998A1078.02352969 1078.02352969 0 0 1 53.33333334 362.42823562l240.16941187 334.02352876a114.97411781 114.97411781 0 0 0-10.10823562 57.37411781c2.37176438 31.05882375 17.11058812 60.08470594 40.88470594 80.64 23.7176475 20.72470594 54.55058813 31.22823563 85.60941187 29.30823562 31.28470594-1.86352969 59.74588219-15.81176437 80.18823563-39.24705937 20.32941187-23.43529406 30.15529406-53.53411781 27.67058812-84.81882281a118.92705844 118.92705844 0 0 0-40.9976475-80.58352969 119.04 119.04 0 0 0-105.6-26.25882375 127.79294156 127.79294156 0 0 1 83.35058813-132.25411781c41.78823562-15.36 89.9576475-13.89176438 127.96235343 3.50117718 21.74117625 10.56 55.34117625 52.91294156 57.26117625 57.8823525 0.16941188 0.56470594 0.45176437 1.01647031 0.6776475 1.58117625a116.04705844 116.04705844 0 0 0-3.38823562 38.23058813c2.42823563 31.05882375 17.16705844 60.14117625 40.9976475 80.75294156 23.66117625 20.66823563 54.49411781 31.17176437 85.55294062 29.25176438a114.29647031 114.29647031 0 0 0 107.74588219-124.00941188 118.92705844 118.92705844 0 0 0-40.88470594-80.64 119.04 119.04 0 0 0-118.24941187-22.58823469c-1.80705844-0.6776475-54.88941188-29.98588219-69.62823469-49.52470593-22.24941187-34.89882375-30.32470594-81.65647031-21.00705937-124.57411782a127.05882375 127.05882375 0 0 1 116.89411781-99.1623525 118.92705844 118.92705844 0 0 0 40.77176531 99.84c23.7176475 20.66823563 54.55058813 31.22823563 85.60941094 29.30823469a114.29647031 114.29647031 0 0 0 107.80235344-124.00941187 118.98352969 118.98352969 0 0 0-40.94117625-80.69647032c-40.65882375-35.35058812-98.31529406-38.4-140.8376475-11.29411781L450.66039178-54.21176437999998z"  horiz-adv-x="1024" />

    
    <glyph glyph-name="huangguan2" unicode="&#58890;" d="M800.32689458 716.66258988l177.08356244-430.16673551-363.66828141-363.67256579-430.16887821 177.08891765c-33.69536414-28.24960512-83.72800427-26.98135662-115.39781184 4.67988218-33.43935798 33.44899864-33.43935798 87.78661537 0 121.22704522 33.44042882 33.44042882 87.78768725 33.44042882 121.22704416 0 12.91600271-12.91707354 20.64225363-28.75197785 23.68433797-45.47165737 55.22774819-12.41470188 115.26606031 2.40795905 158.21085922 45.47165737 56.49064147 56.48957065 64.72676306 142.12423313 25.96911323 207.86430935l-4.18179386 5.95670051-60.5449692 67.25897675c-28.50454048-7.60306712-60.17113449-0.50665711-82.5915073 21.91478653-33.44042882 33.44042882-33.44042882 87.78018928 0 121.2206181 33.44042882 33.44257152 87.78233096 33.44257152 121.22276082 0 22.42144366-22.41930196 29.51785468-53.95735697 21.91478652-82.59043645l65.10595199-60.79561913 8.23719243-3.93114393c65.74007624-38.63018165 151.49792251-30.39727362 207.86002498 25.96911426 43.0722671 43.06798166 57.89064256 102.98203913 45.47594175 158.21085921-16.59221133 3.03994162-32.55136921 10.76619255-45.47594175 23.68647966-33.44042882 33.44042882-33.44042882 87.78233096 0 121.22168893s87.78661537 33.44042882 121.22704521 0c31.66445233-31.28740508 33.05588361-81.44965508 4.81056285-115.14287754z"  horiz-adv-x="1024" />

    
    <glyph glyph-name="app" unicode="&#58936;" d="M476.44484127 831.56785715a76.19017857 76.19017857 0 0 0 73.72678572-1e-8L891.20019842 643.12500001a76.19017857 76.19017857 0 0 0 39.36517857-66.6919643v-374.12142857a76.19017857 76.19017857 0 0 0-39.36607143-66.66607142L550.17162699-52.850892860000044a76.19017857 76.19017857 0 0 0-73.70178571 0L135.44126985 135.59375a76.19017857 76.19017857 0 0 0-39.36517857 66.71696428V576.40625a76.19017857 76.19017857 0 0 0 39.36517857 66.64107143L476.44484127 831.59375v-0.02589286zM243.04662699 538.7428571400001a38.09553572 38.09553572 0 0 1 14.88303572-51.80982143l217.29464285-120.05089286v-239.44107142a38.09553572 38.09553572 0 0 1 76.19107144 0V366.88214286000004l217.29464285 120.12767857a38.09553572 38.09553572 0 0 1-36.825 66.64107143L513.32073413 432.88928572 294.80555557 553.65089286a38.09553572 38.09553572 0 0 1-51.75892858-14.93303571z"  horiz-adv-x="1024" />

    
    <glyph glyph-name="book" unicode="&#59124;" d="M846.34482781-9.931034060000002h-595.86206906c-9.93103406 0-19.86206906 3.31034438-29.79310312 13.24137843-6.62068969 6.62068969-13.24137938 19.86206906-13.24137938 29.79310407 0 23.17241344 16.55172375 43.0344825 39.72413719 43.0344825h423.72413812V840.82758656h-463.44827531C174.34482781 840.82758656 147.86206906 814.34482781 147.86206906 777.93103406v-748.13793093c0-26.48275875 9.93103406-52.9655175 29.79310313-72.82758563 19.86206906-19.86206906 43.0344825-29.79310312 72.82758656-29.79310406h595.86206906c6.62068969 0 16.55172375 3.31034438 19.86206906 9.931035 6.62068969 6.62068969 9.93103406 13.24137938 9.93103407 23.17241344 0 9.93103406-3.31034438 16.55172375-9.93103407 23.17241437-6.62068969 3.31034438-13.24137938 6.62068969-19.86206906 6.62068969zM809.93103406 840.82758656h-89.37931031v-754.75862062H809.93103406c36.41379281 0 66.20689687 26.48275875 66.20689688 59.58620625V781.24137938c0 33.10344844-29.79310312 59.58620719-66.20689688 59.58620718z"  horiz-adv-x="1024" />

    
    <glyph glyph-name="change" unicode="&#58985;" d="M593.67490787 675.0006647499999H255.61651541c-17.84948281 0-32.45360583-14.60412302-32.45360583-32.45360584s14.60412302-32.45360583 32.45360583-32.45360582h338.05839246c17.84948281 0 32.45360583 14.60412302 32.45360584 32.45360582s-14.60412302 32.45360583-32.45360584 32.45360584zM837.61784377 761.00271901C784.06939421 761.00271901 740.79792014 717.73124494 740.79792014 664.18279538v-517.63501056c0-38.94432654 12.98144256-95.73813703 30.83092537-132.51888925 1.62268046-7.03161458 4.32714752-14.60412302 9.73608164-22.17663146 11.89965597-17.30859008 31.37181923-28.12645831 56.25291662-28.12645832s44.35326066 10.81786823 56.25291662 28.12645832c4.86804139 7.57250845 8.11340117 14.60412302 9.73608164 21.09484373 18.39037667 35.69896675 30.83092537 91.41098951 30.83092536 133.05978425V664.72368925c0 53.54844957-43.27147406 96.27902976-96.81992362 96.27902976z m0-64.3663178c17.84948281 0 32.45360583-14.06322915 32.45360583-31.91271196v-118.99655396H805.70513181v118.99655396c-0.54089387 17.30859008 13.52233529 31.91271197 31.91271196 31.91271196z m7.03161458-656.10372779s-3.78625365-11.89965597-7.03161458-11.89965596-6.49072071 10.2769755-6.49072071 10.2769755c-14.06322915 27.58556445-25.96288512 76.80686649-25.96288512 107.63779186V481.36081749h64.36631779v-334.2721388c0-32.99449856-10.81786823-82.21580061-24.88109738-106.55600527zM600.70652245 547.8907084800001c-3.78625365 0-7.57250845-0.54089387-10.81786823-2.16357319H250.74847403c-50.30308864 0-91.95188224 42.73058133-91.95188224 96.81992362 0 54.08934229 41.10790087 96.81992363 92.4927761 96.81992363h344.00822045c17.84948281 0 32.45360583 14.60412302 32.45360583 32.45360583s-14.60412302 32.45360583-32.45360583 32.45360584H251.28936789c-87.62473586 0-157.39998777-72.47971897-157.39998776-161.7271353v-539.81164202c0-76.26597376 62.20274461-137.38693063 138.46871722-137.38693063l261.25152598-1.0817866c76.80686649 0 139.00961109 61.66185074 139.00961109 137.38693063V515.43710265c0 17.84948281-14.06322915 32.45360583-31.91271197 32.45360583z m-106.55600526-519.25769102l-261.25152597 1.08178659c-41.10790087 0-74.10239943 32.45360583-74.10239943 73.02061284V511.65084899c25.96288512-19.47216327 57.33470322-30.83092537 91.95188224-30.83092536h317.50444259V101.11273757000004c0-40.02611314-32.99449856-72.47971897-74.10239943-72.47972011z"  horiz-adv-x="1024" />

    
    <glyph glyph-name="game" unicode="&#59341;" d="M440.47722886 659.71248114c-54.10641592 51.80401525-179.58725285 72.52562134-250.38607369-1.72680051-69.07202033-72.52562134-125.48083693-247.50807283-125.48083693-412.70532145 0-199.15765861 170.37765015-226.78646674 263.04927742-128.93443795 27.05320796 28.2044083 41.44321219 44.89681322 53.53081575 59.86241762 26.47760779 32.23360949 65.61841931 50.65281491 107.63723168 50.65281491h53.53081575c41.44321219 0 80.58402372-18.99480559 107.63723169-50.65281491 12.08760355-14.96560441 27.05320796-31.08240915 54.10641592-59.86241762 92.67162727-97.8520288 263.04927741-70.22322066 263.04927742 128.93443795 0 165.19724862-55.83321643 339.60409995-125.48083694 412.70532145-70.79882083 74.25242186-196.27965777 53.53081576-250.38607368 1.72680051-20.7216061-20.14600594-75.4036222-27.62880813-75.4036222-27.62880813s-54.6820161 7.4828022-75.40362219 27.62880813z m-74.82802202-121.45163575v-53.53081575h54.6820161c21.87280645 0 39.71641168-16.69240492 39.71641168-36.83841084s-17.84360526-36.83841084-39.71641168-36.83841084h-54.6820161v-53.53081575c0-21.29720626-16.69240492-38.56521135-37.41401101-38.56521136-21.29720626 0.57560016-37.98961117 17.84360526-37.414011 38.56521136v53.53081575h-54.6820161c-21.87280645 0-39.71641168 16.69240492-39.71641169 36.83841084s17.84360526 36.83841084 39.71641169 36.83841084h54.6820161v53.53081575c0 21.29720626 16.69240492 38.56521135 37.414011 38.56521137s37.41401101-17.26800508 37.41401101-38.56521137z m338.45289961-25.90200763c0 25.32640746 21.29720626 46.04801356 47.19921389 46.04801357 26.47760779 0 48.35041424-21.87280645 47.19921389-48.35041424-1.15120035-25.32640746-24.17520712-44.89681322-49.50161458-43.74561286-25.32640746 1.15120035-44.89681322 20.7216061-44.8968132 46.04801353z m-94.39842779-110.5152325c0 25.32640746 21.29720626 46.04801356 47.1992139 46.04801354 25.90200763 0 47.19921389-20.7216061 47.19921389-46.04801354-1.15120035-25.32640746-21.87280645-44.89681322-47.19921389-44.89681322-25.32640746 0-46.04801356 19.57040576-47.1992139 44.89681322z"  horiz-adv-x="1024" />

    
    <glyph glyph-name="keyanlinggan" unicode="&#59340;" d="M723.748571 89.78285700000004v46.08A351.085714 351.085714 0 0 1 914.285714 456.118857a402.285714 402.285714 0 0 1-804.571428 0 351.085714 351.085714 0 0 1 190.537143-320.256v-46.08h423.497142zM300.251429 26.22171400000002v-12.690285a85.504 85.504 0 0 1 83.638857-93.184h256.219428a85.504 85.504 0 0 1 83.638857 93.184v12.690285z m348.562285 427.52l-99.510857-99.510857a55.552 55.552 0 0 0-74.642286 0l-99.510857 99.510857a41.069714 41.069714 0 1 0 57.673143 57.6l79.213714-79.104 79.104 79.140572a41.069714 41.069714 0 1 0 57.673143-57.636572"  horiz-adv-x="1024" />

    
    <glyph glyph-name="xiazai" unicode="&#58910;" d="M967.20851064 391.20141844c-0.86170213 4.59574468-2.41276596 8.90425532-3.56170213 13.38510638-2.41276596 9.30638298-4.99787234 18.44042553-8.50212766 27.28723404C953.19148936 436.81418439 950.83617021 441.52482269 948.59574468 446.2929078c-3.73404255 7.87021277-7.81276596 15.45319149-12.40851064 22.80638298-2.87234043 4.65319149-5.91702128 9.07659574-9.13404255 13.5C921.99787234 489.55035461 916.48297872 496.09929078 910.68085106 502.41843971c-3.56170213 3.90638298-7.00851064 7.81276596-10.8 11.4319149-6.7212766 6.43404255-13.95957447 12.1212766-21.42765957 17.69361702-3.61914894 2.7-6.95106383 5.68723404-10.74255319 8.15744681-11.4893617 7.58297872-23.6106383 14.36170213-36.4212766 19.76170212-0.57446809 0.22978723-1.20638298 0.34468085-1.78085106 0.57446809-11.20212766 4.65319149-22.80638298 8.55957447-34.87021277 11.43191489C770.39574468 705.55035461 652.85957447 807.4609929 512 807.4609929S253.60425532 705.55035461 229.36170213 571.52695035C128.02553191 547.6290780100001 52.42553191 456.4035461 52.42553191 347.88652482c0-126.72765957 103.05957447-229.78723404 229.78723405-229.78723404 31.76808511 0 57.44680851 25.6787234 57.44680851 57.44680851s-25.6787234 57.44680851-57.44680851 57.44680851c-63.36382979 0-114.89361702 51.52978723-114.89361702 114.89361702 0 63.36382979 51.52978723 114.89361702 114.89361702 114.89361702 31.76808511 0 57.44680851 25.73617021 57.44680851 57.44680851 0 95.01702128 77.32340426 172.34042553 172.34042553 172.34042553 78.64468085 0 144.36382979-53.25319149 164.98723404-125.34893617C581.97021277 539.06950354 512 451.92269503 512 347.88652482l0-206.00425532-17.98085106 17.98085106c-22.46170213 22.46170213-58.76808511 22.46170213-81.22978724 0s-22.46170213-58.76808511 0-81.22978723l116.1-116.1C539.80425532-48.38156029000004 554.5106383-54.24113476000002 569.44680851-54.24113476000002c7.4106383 0 14.8787234 1.3787234 22.00212766 4.36595745C612.93404255-41.02836879999995 626.89361702-20.002836880000018 626.89361702 3.205673759999968L626.89361702 347.88652482c0 63.36382979 51.52978723 114.89361702 114.89361702 114.89361702s114.89361702-51.52978723 114.89361702-114.89361702c0-63.36382979-51.52978723-114.89361702-114.89361702-114.89361702-31.76808511 0-57.44680851-25.6787234-57.44680851-57.44680851s25.6787234-57.44680851 57.44680851-57.44680851c126.72765957 0 229.78723404 103.05957447 229.78723405 229.78723404C971.57446809 362.70780142 969.90851064 377.12695035 967.20851064 391.20141844z"  horiz-adv-x="1024" />

    
    <glyph glyph-name="xiazai1" unicode="&#59156;" d="M850.42214571 451.77384625c0.25382924 5.33618265 0.7629299 10.67092308 0.76292989 16.00566353 0 147.36084713-119.41511438 266.90143391-266.9014339 266.9014339-106.328487 0-197.7949842-62.24584948-240.73394798-152.18792911-20.8327455 16.13402035-46.87475903 25.78674209-75.20412003 25.78674209-67.96277596 0-123.0970804-55.13142001-123.0970804-123.09563819 0-12.83135596 1.90516144-25.15216904 5.59001187-36.71293661-52.97387157-31.37819617-86.12887235-89.05223512-86.12887235-155.23820648 0-98.83331369 80.53886046-179.11978715 180.38893328-180.64420472l86.2572292 5.33618264-57.16638049 65.54851388c-24.51759593 29.21920553-30.23452243 65.17065444-15.49800507 96.67576524 14.73651737 31.50366858 46.24018595 49.92359418 84.35206775 49.9235942h38.2373542v98.32565522c0 58.94462729 49.28902112 111.91849886 108.23364842 111.91849886h37.3489519c59.0715419 0 104.0411395-52.84695696 104.04113951-111.91849886v-98.19729842h42.55677769c38.11188179 0 69.74246499-19.8188708 84.35206776-51.32253937 14.73651737-31.50511078 8.89267627-65.55139829-15.49800506-94.89607621l-57.16638047-65.93069992s94.13314631-3.17574979 97.43581071-3.17574978c97.56416755 0 176.70696726 77.74529675 176.70696726 175.30802207 0 73.42731543-44.97103981 135.03859184-108.86966369 161.58970604zM673.4613492 254.23269128000004h-117.50706852V428.39848184c0 17.78535253-11.43385297 38.11043958-29.09084868 38.11043958h-37.3489519c-17.78535253 0-33.41027222-20.32508704-33.41027223-38.11043958v-174.16579056h-113.18764501c-17.78535253 0-22.99462058-11.55932539-11.56076757-25.152169l155.99969415-186.61496045c5.71692649-6.86060023 13.21065758-10.29017924 20.70583088-10.29017924s14.9903466 3.30266439 20.7072731 10.16326462l155.99969417 186.74187507c11.68768221 13.71975825 6.47841418 25.15216904-11.30693839 25.152169z"  horiz-adv-x="1024" />

    
    <glyph glyph-name="xiazai2" unicode="&#58909;" d="M631.45907987 140.89070704999995L576.63022824 86.06185541000002V261.56313566999995a48.95433162 48.95433162 0 1 1-97.90866416 0v-175.50128026l-54.82885164 54.82885164a48.97880932 48.97880932 0 0 1-69.27037966-69.27037875l138.54075933-138.29598777c2.1539904-2.37428516 4.62618455-4.40588978 7.34315025-6.11929157 1.17490419-0.83222364 2.39876195-1.56653831 3.67157511-2.20294489l4.89543289-2.44771644 4.89543289-1.46863024 4.16111823-1.22385867a48.95433162 48.95433162 0 0 1 19.09218936 0l4.16111823 1.22385867 4.8954338 1.46863024 4.89543289 2.44771644a29.12782761 29.12782761 0 0 1 3.67157512 2.20294489 34.75757606 34.75757606 0 0 1 7.34314933 6.11929157l138.54075932 138.29598777a48.97880932 48.97880932 0 0 1-69.27037966 69.27037875zM796.92472192 672.77952297a293.72599156 293.72599156 0 0 1-538.4976506 0A244.77165903 244.77165903 0 0 1 307.38140295 188.13163779v97.90866326a146.86299578 146.86299578 0 1 0 25.70102404 291.27827511 195.8173274 195.8173274 0 0 0 389.18693835 0A146.86299578 146.86299578 0 0 0 747.97038937 579.7662926a146.86299578 146.86299578 0 0 0 0-293.72599156v-97.90866325a244.77165903 244.77165903 0 0 1 48.95433254 484.64788517zM307.38140295 237.08596941999997m-48.95433164 0a48.95433162 48.95433162 0 1 1 97.90866326 0 48.95433162 48.95433162 0 1 1-97.90866325 0ZM747.97038937 237.08596941999997m-48.95433162 0a48.95433162 48.95433162 0 1 1 97.90866416 0 48.95433162 48.95433162 0 1 1-97.90866416 0ZM331.85856921 481.85762844m48.95433163 0l293.72599065 0q48.95433162 0 48.95433253-48.95433162l0 0q0-48.95433162-48.95433253-48.95433162l-293.72599065 0q-48.95433162 0-48.95433163 48.95433162l0 0q0 48.95433162 48.95433163 48.95433162Z"  horiz-adv-x="1050" />

    
    <glyph glyph-name="fuwu" unicode="&#59339;" d="M443.733 85.333H102.4c-18.842 0-34.133 15.292-34.133 34.134V460.8c0 18.842 15.291 34.133 34.133 34.133h341.333c18.842 0 34.134-15.291 34.134-34.133V119.467c0-18.842-15.292-34.134-34.134-34.134z m0 460.8H102.4c-18.842 0-34.133 15.292-34.133 34.134V921.6c0 18.842 15.291 34.133 34.133 34.133h341.333c18.842 0 34.134-15.291 34.134-34.133V580.267c0-18.842-15.292-34.134-34.134-34.134z m537.242-277.162L771.635 59.614c-11.571-11.571-30.293-11.571-41.864 0L520.414 268.97c-11.571 11.57-11.571 30.293 0 41.864l209.357 209.34c11.57 11.571 30.293 11.571 41.864 0l209.357-209.357c11.554-11.554 11.554-30.276-0.017-41.847z m-65.724 35.942L765.713 454.451c-8.243 8.26-21.658 8.26-29.9 0L586.273 304.913c-8.26-8.243-8.26-21.658 0-29.9l149.538-149.539c8.243-8.26 21.658-8.26 29.901 0l149.538 149.538c8.26 8.26 8.26 21.658 0 29.901z m6.349 241.22H580.267c-18.842 0-34.134 15.292-34.134 34.134V921.6c0 18.842 15.292 34.133 34.134 34.133H921.6c18.842 0 34.133-15.291 34.133-34.133V580.267c0-18.842-15.291-34.134-34.133-34.134z"  horiz-adv-x="1024" />

    
    <glyph glyph-name="gonggongku" unicode="&#58896;" d="M320 384a192 192 0 1 1 384 0 192 192 0 1 1-384 0zM960 384c0 53.6-9.408 105.92-27.616 155.2a32 32 0 0 1-60.032-22.144C887.936 474.816 896 429.984 896 384c0-22.048-2.272-43.552-5.856-64.576A63.808 63.808 0 0 1 832 256c0-18.88 8.32-35.68 21.344-47.392C789.6 84.832 660.832 0 512 0c-212.064 0-384 171.936-384 384 0 22.048 2.272 43.552 5.856 64.576A63.808 63.808 0 0 1 192 512c0 18.88-8.32 35.68-21.344 47.392C234.4 683.168 363.168 768 512 768c33.312 0 65.824-4.736 97.312-12.96A64.064 64.064 0 0 1 736 768a64 64 0 0 1-64 64c-16.256 0-30.944-6.272-42.24-16.256A448.864 448.864 0 0 1 512 832c-180.288 0-335.264-106.72-406.336-260.224A63.872 63.872 0 0 1 64 512c0-12.576 3.744-24.224 10.016-34.112A449.344 449.344 0 0 1 64 384c0-247.424 200.576-448 448-448 180.288 0 335.264 106.72 406.336 260.224A63.872 63.872 0 0 1 960 256c0 12.576-3.744 24.224-10.016 34.112C956.448 320.416 960 351.776 960 384z"  horiz-adv-x="1024" />

    
    <glyph glyph-name="iowen" unicode="&#58881;" d="M258.02890442 401.54405594l91.47972029 159.14965036-57.22703962 98.16317016h-58.48018649c-55.55617715 0-90.22657343-60.15104895-62.23962704-108.18834499l86.46713286-149.12447553zM791.86946387 658.85687646h-59.73333333l-178.78228438-309.52727273c-17.96177156-31.32867133-63.07505828-31.32867133-81.03682984 0l-91.47972028-159.14965035L390.86247087 170.96503497000003c2.08857809-4.17715617 3.34172494-8.77202798 3.34172494-13.36689977v-8.77202797c0-21.3034965 17.12634033-38.84755244 38.84755244-38.84755245h159.56736597c21.3034965 0 38.84755244 17.12634033 38.84755244 38.84755245v8.77202797c0 5.01258741 1.25314685 9.60745921 3.75944057 13.78461538L854.52680653 551.08624708c27.15151515 47.61958042-7.1011655 107.77062937-62.65734266 107.77062938zM892.95664335 461.27738928l-64.74592074-111.94778555c-13.36689977-23.39207459-47.2018648-23.39207459-60.98648018 0l-91.47972029-159.14965035 8.77202798-15.03776224c50.54358974-87.72027972 176.6937063-87.72027972 227.65501166-0.41771562l76.44195803 131.9981352c11.6960373 20.46806527 17.96177156 43.44242425 17.96177156 67.25221445v57.22703963c-0.41771562 61.82191142-82.70769231 83.96083916-113.61864802 30.07552448zM553.35384616 401.54405594l91.47972027 159.14965036-18.79720279 32.99953379c-50.54358974 87.72027972-177.11142191 87.72027972-227.65501166 0.41771562l-140.77016317-243.94592074c-13.36689977-23.39207459-47.2018648-23.39207459-60.98648018 0L131.04335665 463.36596737c-31.32867133 53.46759906-113.2009324 31.74638695-113.2009324-30.4932401v-55.97389277c0-23.39207459 6.26573426-46.78414919 17.96177156-67.25221446L113.4993007 175.14219114000002c50.54358974-87.3025641 176.6937063-87.3025641 227.23729603 0l131.16270397 227.23729604c18.37948718 30.07552448 63.49277389 30.07552448 81.45454546-0.83543124z"  horiz-adv-x="1024" />

    
    <glyph glyph-name="changyongmokuai" unicode="&#58960;" d="M445.86211555 769.38467555c88.18346667-88.36437333 39.69479111-359.78467555 39.69479112-359.78467555s-270.87758222-48.61041778-359.06332445 39.75509333c-88.18460445 88.36437333-88.18460445 231.66520889 0 320.02958222 88.18346667 88.36437333 231.18279111 88.36437333 319.36739556 0zM122.45788445 292.98346667c82.70279111 82.52188445 361.41283555 61.86211555 361.41283555 61.86211555s20.66090667-278.22762667-61.98158222-360.74837333c-82.70279111-82.52188445-216.72732445-82.52188445-299.43011556 0-82.64362667 82.52188445-82.64362667 216.36437333 0 298.88739556zM900.096 292.98346667c82.34211555-82.52188445 82.34211555-216.36437333 0-298.82709334-82.34211555-82.52188445-215.88309333-82.52188445-298.22520889 0-82.34211555 82.52188445-61.74037333 360.74837333-61.74037333 360.74837334s277.62460445 20.60060445 359.96558222-61.92241778zM577.95811555 769.38467555c87.82279111 88.36437333 230.21909333 88.36437333 318.04188445 0s87.82279111-231.66520889 0-320.02958222c-87.82279111-88.36437333-357.55690667-39.75509333-357.55690667-39.75509333s-48.30890667 271.41916445 39.51388445 359.78467555z"  horiz-adv-x="1024" />

    
    <glyph glyph-name="caozuoshili" unicode="&#59018;" d="M512 834C264.5 834 62 631.5 62 384s202.5-450 450-450 450 202.5 450 450-202.5 450-450 450z m202.5-483.75l-281.25-185.625c-28.125-16.875-56.25-5.625-56.25 28.125V575.25c0 33.75 22.5 50.625 56.25 28.125l281.25-185.625c28.125-16.875 28.125-50.625 0-67.5z m0 0"  horiz-adv-x="1024" />

    
    <glyph glyph-name="zixun" unicode="&#59142;" d="M737.38906062 830.04004875H286.09326687c-127.50382969 0-231.23182406-101.42346469-231.23182312-226.08574125v-440.490795c0-124.66066406 103.72799344-226.07929031 231.23182312-226.07929031h451.29579375c127.79088844 0 231.75110906 101.42023875 231.75110907 226.07929031V603.98333531c-0.52412344 124.64776219-104.48756906 226.0567125-231.75110907 226.05671344zM490.57223469 235.00067156c0-14.18035219-5.4492675-27.12538594-15.75433406-37.43851593-9.68256937-9.68579531-23.32589719-15.23504906-37.43367844-15.23504907H249.55463c-13.89168094 0-26.78510906 5.22349125-37.28047313 15.10119563-9.83416219 9.81642281-15.38825438 23.46297562-15.38825437 37.57236937v188.84558532c0 13.78040625 5.55570469 27.23343656 15.25278844 36.91600593 10.508265 9.87770438 23.56618687 15.2431125 36.90310406 15.2431125H437.38422219c14.16583781 0 27.10442156-5.44442906 37.43045343-15.75755906 10.01478281-10.01962125 15.75755906-23.65811062 15.75755907-37.42884v-187.81830469z m301.8803925 4.44295125H624.17685781c-19.11678563 0-34.65985781 15.55436063-34.65985781 34.66308281s15.54468469 34.66308281 34.65985781 34.66308375h168.27576938c19.11517312 0 34.66469531-15.55436063 34.66469531-34.66308375s-15.55113563-34.66308281-34.66469531-34.66308281z m0 169.2917625H624.17685781c-19.11678563 0-34.65985781 15.31407094-34.65985781 34.14863531 0 19.11839812 15.54468469 34.66469531 34.65985781 34.66469625h168.27576938c19.11517312 0 34.66469531-15.54629719 34.66469531-34.66469625 0-19.15387688-15.22698563-34.14863625-34.66469531-34.14863531z m0 166.72920282H231.54898531c-19.11517312 0-34.66469531 15.55436063-34.66469531 34.66308281s15.54952313 34.65985781 34.66469531 34.65985781h560.90364188c19.11517312 0 34.66469531-15.54952313 34.66469531-34.65985781s-15.55113563-34.66308281-34.66469531-34.66308282zM265.68794562 407.19204375h155.55973594v-155.546835h-155.55973594z"  horiz-adv-x="1024" />

    
    <glyph glyph-name="sucai1-copy" unicode="&#58880;" d="M334.749552 682.908764h355.735003c10.741645 0 19.400862 8.768711 19.400863 19.510356s-8.659217 19.399839-19.400863 19.399839H334.749552c-10.688433 0-19.399839-8.658194-19.399839-19.399839s8.711406-19.510356 19.399839-19.510356z m-24.170493-98.867752h404.129201c10.522658 0.329505 18.853393 8.988722 18.853393 19.510356 0 10.412141-8.330736 19.072381-18.853393 19.400862H310.579059c-10.522658-0.328481-18.85237-8.988722-18.85237-19.400862 0-10.521634 8.330736-19.179828 18.85237-19.510356z m433.943227-59.95551H280.766057c-10.741645 0-19.400862-8.768711-19.400863-19.400862 0-10.741645 8.659217-19.510356 19.400863-19.510356h463.756229c10.741645 0 19.400862 8.768711 19.400862 19.510356 0 10.632151-8.659217 19.400862-19.400862 19.400862z m208.862935-145.342226l-121.722272 389.441687C819.661613 806.6582060000001 778.667967 835.703729 736.249879 835.703729H289.042557c-42.419112 0-83.411735-29.046546-95.41614-67.518766L71.850933 378.633782a83.020832 83.020832 0 0 1-8.16496-35.513841v-321.155441c0.053212-46.474474 37.705763-84.070744 84.232426-84.180238h729.450521c46.473451 0.10847 84.179214 37.705763 84.235496 84.180238V343.12096399999996a83.145675 83.145675 0 0 1-8.219195 35.622312zM718.053448 109.10413900000003H307.237965c-20.935822 0-37.924751 16.989953-37.924751 37.925775 0 21.044292 16.98893 37.925774 37.924751 37.925774h410.815483c20.989033 0 37.925774-16.880459 37.925774-37.925774 0-20.935822-16.936741-37.925774-37.925774-37.925775z m-84.837201 318.196039c-13.81054 0-26.143427-8.768711-30.581505-21.921265-13.263072-38.801724-49.433876-64.888869-89.936336-64.888869-40.554648 0-76.726475 26.086122-89.988523 64.888869a32.369222 32.369222 0 0 1-30.634718 21.921265h-237.140978l100.567463 321.594439c3.507894 11.289114 19.839861 22.030759 33.539884 22.03076h447.206298c15.3455 0 30.305213-11.618619 33.539884-22.03076l100.564393-321.594439H633.216247z"  horiz-adv-x="1024" />

    
    <glyph glyph-name="linggan" unicode="&#59082;" d="M514.45874791 672.49303047c-140.14860255 0-253.25098417-113.92196323-253.25098417-253.25098417 0-79.49949957 36.88121157-153.26192272 99.98906145-201.61728817 15.57206706-11.47415489 37.70079421-9.01540698 49.17494809 6.55666008 11.47415489 15.57206706 9.01540698 37.70079421-6.55665907 49.17494809-45.89661855 35.2420463-72.12325787 88.51490655-72.12325787 145.88568 0 100.80864409 81.95824749 182.76689157 182.76689157 182.76689157s182.76689157-81.95824749 182.76689056-182.76689157c0-66.38618043-36.06162894-127.85486604-94.251984-159.81858179-0.81958264-0.81958264-1.63916528-0.81958264-1.63916528-1.63916528-0.81958264-0.81958264-1.63916528-0.81958264-1.63916425-0.81958263-12.29373753-9.01540698-18.8503966-14.75248443-20.48956188-108.18488579l-178.6689794 40.97912374c-18.8503966 4.09791217-37.70079421-7.37624272-42.618288-26.22663932-4.09791217-18.8503966 7.37624272-37.70079421 26.2266383-42.61828902l222.10685004-50.81411336c2.45874791-0.81958264 4.91749481-0.81958264 8.19582536-0.81958162 8.19582434 0 15.57206706 2.45874791 22.12872613 7.37624171 8.19582434 6.55666009 13.11331915 17.21123234 13.11332017 27.86580459v18.8503966c0 47.53578383 1.63916528 71.30367523 2.45874689 83.59741174 72.12325787 46.71620119 116.38071115 127.0352834 116.38071115 213.09144307-0.81958264 139.32901991-114.74154587 252.43140153-254.07056579 252.43140153zM593.95824749 43.05369191l-197.519376 46.7162012c-18.8503966 4.09791217-37.70079421-7.37624272-42.61828902-26.22663932-4.09791217-18.8503966 7.37624272-37.70079421 26.22663932-42.61828902l197.519376-46.71620017c2.45874791-0.81958264 5.73707745-0.81958264 8.19582434-0.81958264 16.3916497 0 30.32455149 10.65457226 34.42246366 27.04622093 4.91749481 19.66997923-7.37624272 38.52037583-26.2266383 42.61828902zM554.61828902-46.28079728l-136.05069038 31.96371575c-18.8503966 4.09791217-37.70079421-7.37624272-42.61828902-26.22663932-4.09791217-18.8503966 7.37624272-37.70079421 26.22663932-42.618288l136.05069038-31.96371677c2.45874791-0.81958264 5.73707745-0.81958264 8.19582434-0.81958264 16.3916497 0 30.32455149 10.65457226 34.42246366 27.04622196 4.91749481 18.8503966-7.37624272 37.70079421-26.2266383 42.61828902zM575.92743251 419.2420463c0-19.66997923 15.57206706-35.2420463 35.2420463-35.2420463s35.2420463 15.57206706 35.2420463 35.2420463c0 83.59741174-61.46868562 140.96818519-149.98359217 140.96818519-19.66997923 0-35.2420463-15.57206706-35.2420463-35.2420463s15.57206706-35.2420463 35.2420463-35.2420463c18.03081396 0 79.49949957-4.91749481 79.49949957-70.48409259zM514.45874791 761.00793702c19.66997923 0 35.2420463 15.57206706 35.2420463 35.2420463V848.70326196c0 19.66997923-15.57206706 35.2420463-35.2420463 35.2420463s-35.2420463-15.57206706-35.24204629-35.2420463v-52.45327864c0-19.66997923 15.57206706-35.2420463 35.24204629-35.2420463zM284.15607251 715.93090111l-37.70079319 37.70079319c-13.93290179 13.93290179-36.06162894 13.93290179-49.99453072 0-13.93290179-13.93290179-13.93290179-36.06162894 0-49.99453073l37.70079319-37.70079319c13.93290179-13.93290179 36.06162894-13.93290179 49.99453072 0 13.93290179 13.11331915 13.93290179 36.06162894 0 49.99453073zM162.85786655 470.8757423h-52.45327761c-19.66997923 0-35.2420463-15.57206706-35.2420463-35.2420463s15.57206706-35.2420463 35.2420463-35.2420463h52.45327761c19.66997923 0 35.2420463 15.57206706 35.2420463 35.2420463s-16.3916497 35.2420463-35.2420463 35.2420463zM831.63716357 752.81211268c-13.93290179 13.93290179-36.06162894 13.93290179-49.99453072 0l-37.70079319-37.70079421c-13.93290179-13.93290179-13.93290179-36.06162894 0-49.99453073 13.93290179-13.93290179 36.06162894-13.93290179 49.99453072 0l37.70079319 37.70079422c13.93290179 13.93290179 13.93290179 36.06162894 0 49.99453072zM919.33248851 470.8757423H866.05962826c-19.66997923 0-35.2420463-15.57206706-35.2420463-35.2420463s15.57206706-35.2420463 35.2420463-35.2420463h52.45327761c19.66997923 0 35.2420463 15.57206706 35.2420463 35.2420463 0.81958264 19.66997923-15.57206706 35.2420463-34.42246366 35.2420463z"  horiz-adv-x="1024" />

    
    <glyph glyph-name="tuandui" unicode="&#58891;" d="M817.34394834 435.88889795h-47.38130068c1.75409385-1.9097833 3.44591279-3.8299456 5.00280117-5.73972891 19.72058555-24.97248896 26.39444677-53.78530166 19.23276005-83.14821474l-72.45758232-299.86706953a98.87278711 98.87278711 0 0 1 30.74335489-5.06507696h44.63079785c49.39487666 0 98.91430488 39.19206885 110.53907051 87.48674385l52.93420312 218.85698056c11.6351455 48.33619277-52.48789453 87.47636484-143.24410459 87.47636573zM248.04178701 479.62708037A109.39735283 109.39735283 0 1 1 138.62367529 589.0867081a109.40773183 109.40773183 0 0 1 109.41811172-109.45962773zM511.97587402 534.03513721a149.9802416 149.9802416 0 1 1-149.9802416 149.95948271A149.9906206 149.9906206 0 0 1 511.97587402 534.03513721zM775.95147793 479.62708037a109.39735283 109.39735283 0 1 1-109.39735283 109.45962773 109.49076562 109.49076562 0 0 1 109.39735283-109.45962773zM568.67774609 474.03266104H456.01092793c-124.40575635 0-212.77473662-53.73340576-197.20585371-120.02570948l70.34021455-299.9604832c15.47547011-66.23002881 82.94063027-120.04646836 150.58223789-120.04646836h61.3102623c67.68312451 0 135.51155948 53.76454365 151.53712999 120.00495146l72.44720243 299.96048321c16.0567084 66.33382148-71.83482714 120.06722724-196.34437529 120.06722637z m73.69271368-213.87493741L492.82614687 110.86251299000003a26.46710156 26.46710156 0 0 0-37.10583808 0l-74.18053829 74.18053916a26.44634268 26.44634268 0 0 0 37.36531934 37.36531933l55.79887764-55.78849775 130.62292999 130.65406699a26.22318926 26.22318926 0 0 0 37.09545907-37.0747002zM249.29767637 430.12841104c1.56726738 2.07585088 3.30060323 3.8299456 4.97166327 5.73972802h-47.09068154c-90.74583018 0-155.20100713-39.14017207-143.88761865-87.49712373l51.29428008-218.85698056c11.28225058-48.24277911 60.61485146-87.46598584 109.88517832-87.46598584h44.71383252a99.71350752 99.71350752 0 0 1 30.6914581 5.08583584V47.24805644000003l-70.29869765 299.96048233c-6.83992969 29.33177607-0.09341367 58.00965908 19.72058554 82.91987227z"  horiz-adv-x="1024" />

    
    <glyph glyph-name="tijiao" unicode="&#59013;" d="M100.23694927 796.41112627m58.9158742 0l706.99050139 0q58.91587557 0 58.91587559-58.91587557l0 0q0-58.91587557-58.91587559-58.91587557l-706.99050139 0q-58.91587557 0-58.9158742 58.91587557l0 0q0 58.91587557 58.9158742 58.91587557ZM836.0373136-28.411126269999954H571.56394974v235.01542676h118.12633007l-177.04220563 236.0169948-176.74762537-236.0169948h117.83175116v-235.07434172h-265.82842854a88.37381268 88.37381268 0 0 0-88.37381266 88.37381266v471.32700048a88.37381268 88.37381268 0 0 0 88.37381266 88.37381268h648.07462583a88.37381268 88.37381268 0 0 0 88.37381268-88.37381268v-471.32700048a88.37381268 88.37381268 0 0 0-88.31489634-88.3148977z"  horiz-adv-x="1024" />

    
    <glyph glyph-name="yanshi" unicode="&#59042;" d="M775.996952 143.23809567l83.236572-83.236572a48.761905 48.761905 0 1 0-68.949334-68.949333l-137.898666 137.898666a48.664381 48.664381 0 0 0-9.947429 14.287239h-260.87619a48.664381 48.664381 0 0 0-9.947429-14.287239L233.71581-8.89904733000003a48.761905 48.761905 0 0 0-68.949334 68.949333L248.003048 143.23809567H219.428571a97.52381 97.52381 0 0 0-97.523809 97.523809V679.61904767a48.761905 48.761905 0 1 0 0 97.523809h780.190476a48.761905 48.761905 0 0 0 0-97.523809v-438.857143a97.52381 97.52381 0 0 0-97.523809-97.523809h-28.574477zM434.127238 580.19352367A12.970667 12.970667 0 0 1 414.47619 569.02704767v-266.435048c0-10.191238 11.068952-16.384 19.651048-11.215238l217.965714 133.217524a13.165714 13.165714 0 0 1 0 22.332952L434.127238 580.14476167z"  horiz-adv-x="1024" />

    
    <glyph glyph-name="tijiao1" unicode="&#58883;" d="M793.25 834a112.5 112.5 0 0 0 112.5-112.5v-675a112.5 112.5 0 0 0-112.5-112.5H230.75a112.5 112.5 0 0 0-112.5 112.5V721.5a112.5 112.5 0 0 0 112.5 112.5h562.5z m30.9375-516.54375a41.0625 41.0625 0 0 1-57.20625 0L561.5 157.3125a28.125 28.125 0 0 0-36.675 1.8L466.04375 215.25a41.0625 41.0625 0 0 1-57.15 0 38.7 38.7 0 0 1 0-55.9125l93.6-92.25a56.25 56.25 0 0 1 74.86875-3.7125l244.96875 198.16875c15.91875 14.45625 15.91875 40.5 1.85625 55.96875zM626.35625 427.81875H296.39375a39.15 39.15 0 0 1-38.475-39.54375c0-21.20625 16.875-39.54375 38.475-39.54375h329.9625a39.15 39.15 0 0 1 38.475 39.54375c0 21.20625-16.875 39.54375-38.475 39.54375z m0 225H296.39375a39.15 39.15 0 0 1-38.475-39.54375c0-21.20625 16.875-39.54375 38.475-39.54375h329.9625a39.15 39.15 0 0 1 38.475 39.54375c0 21.20625-16.875 39.54375-38.475 39.54375z"  horiz-adv-x="1024" />

    
    <glyph glyph-name="wordpress" unicode="&#59022;" d="M906.84585283 599.91717627c1.9349332-14.35450518 3.01489629-29.69897519 3.01489629-46.25840479 0-79.10727099-7.33474688-83.56211719-171.66907793-558.61072734A449.84948027 449.84948027 0 0 1 961.96895088 384.01462412a447.59955761 447.59955761 0 0 1-55.12309805 215.90255215z m-386.94165029-255.27619336l-135.04034092-392.29646572c91.12185615-26.81907451 187.6885251-24.07416943 276.56045859 7.15475302a40.36360781 40.36360781 0 0 0-3.19489013 6.20978555l-138.32522754 378.93192715z m295.86479238 62.09785722c0 55.61808135-19.97931094 94.13675244-37.12371943 124.10571885-22.76921426 37.07872119-44.1884751 68.44263838-44.1884751 105.52135957 0 41.35357354 31.40891631 79.87224463 75.59739141 79.87224463 1.97993144 0 3.86986641-0.26999033 5.80480049-0.35998769A448.27453477 448.27453477 0 0 1 511.98447588 833.9991a449.44449433 449.44449433 0 0 1-375.96202998-202.80800303c28.66401123-0.89996924 67.13768408-1.25995693 148.89986367 5.12982334 24.25416328 1.4399499 27.08906573-34.1988205 2.87990069-37.03372294 0 0-24.38915888-2.87990068-51.52322286-4.3198506l163.884346-487.42318388L498.61993643 402.91397286 428.51235518 595.01234502c-24.20916504 1.39495166-47.15837315 4.27485234-47.15837315 4.27485235-24.25416328 1.4399499-21.41926084 38.51867109 2.83490245 37.07872118 93.01179112-7.15475302 140.62014844-7.69473458 238.44677343 0 24.25416328 1.4399499 27.13406396-34.1988205 2.87990068-37.07872118 0 0-24.43415713-2.87990068-51.52322197-4.27485235l162.62438906-483.73331133c64.21278428 214.55259786 79.15226924 250.46135947 79.15226924 295.45980644zM62 384.01462412c0-178.10385557 103.49642901-332.04354433 253.61125049-404.98602803L100.96865528 567.15830566A448.22953565 448.22953565 0 0 1 62 384.01462412z"  horiz-adv-x="1024" />

    
    <glyph glyph-name="gongju" unicode="&#59049;" d="M313.1 781.7h397.7c27.5 0 49.7-22.3 49.7-49.7H263.4c0 27.5 22.3 49.7 49.7 49.7zM164 682.3h696c54.9 0 99.4-44.5 99.4-99.4v-99.4H64.6v99.4c0 54.9 44.5 99.4 99.4 99.4z m298.3-397.7c0-27.5 22.3-49.7 49.7-49.7 27.5 0 49.7 22.3 49.7 49.7V433.7h397.8v-348c0-54.9-44.5-99.4-99.4-99.4H164c-54.9 0-99.4 44.5-99.4 99.4v348h397.7v-149.1z"  horiz-adv-x="1024" />

    


  </font>
</defs>
</svg>
