<?xml version="1.0" encoding="UTF-8"?>
<svg width="266px" height="266px" viewBox="0 0 266 266" version="1.1" xmlns="http://www.w3.org/2000/svg" xmlns:xlink="http://www.w3.org/1999/xlink">
    <!-- Generator: Sketch 64 (93537) - https://sketch.com -->
    <title>Blushy Icon</title>
    <desc>Created with Sketch.</desc>
    <defs>
        <path d="M91.3431433,3.72902511e-15 L173.700133,3.72902511e-15 C205.794807,3.72902511e-15 217.433112,3.341722 229.166445,9.61677734 C240.899779,15.8918327 250.108167,25.1002213 256.383223,36.8335547 L256.756203,37.537605 C262.79061,49.0406027 266,60.8470861 266,92.2998672 L266,173.700133 L265.995993,175.60143 C265.865158,206.260378 262.532777,217.667779 256.383223,229.166445 C250.108167,240.899779 240.899779,250.108167 229.166445,256.383223 L228.462395,256.756203 C216.959397,262.79061 205.152914,266 173.700133,266 L92.2998672,266 L90.39857,265.995993 C59.7396224,265.865158 48.3322213,262.532777 36.8335547,256.383223 C25.1002213,250.108167 15.8918327,240.899779 9.61677734,229.166445 L9.24379728,228.462395 C3.2709654,217.076775 0.0657919013,205.393831 2.48601674e-15,174.656857 L2.48601674e-15,92.2998672 C2.48601674e-15,60.2051926 3.341722,48.566888 9.61677734,36.8335547 C15.8918327,25.1002213 25.1002213,15.8918327 36.8335547,9.61677734 L37.537605,9.24379728 C48.9232252,3.2709654 60.606169,0.0657919013 91.3431433,3.72902511e-15 Z" id="path-1"></path>
    </defs>
    <g id="Blushy-Icon" stroke="none" stroke-width="1" fill="none" fill-rule="evenodd">
        <mask id="mask-2" fill="white">
            <use xlink:href="#path-1"></use>
        </mask>
        <use id="Container" fill="#91D7E0" xlink:href="#path-1"></use>
        <g id="Utilities/Tint" fill="#91D7E0" mask="url(#mask-2)">
            <rect id="tint" fill="#91D7E0" x="0" y="0" width="266" height="266"></rect>
        </g>
        <g id="Blushy-Expressions/Happy-1" mask="url(#mask-2)">
            <g id="blushes" stroke-width="1" fill-rule="evenodd" transform="translate(-51.462312, 114.286432)" fill="#FF5989">
                <g id="Group-7">
                    <ellipse id="blush-circles" cx="64.3613009" cy="62.4899497" rx="63.8266332" ry="62.4899497"></ellipse>
                </g>
                <g id="Group-7" transform="translate(240.603015, 0.000000)">
                    <ellipse id="blush-circles" cx="64.3613009" cy="62.4899497" rx="63.8266332" ry="62.4899497"></ellipse>
                </g>
            </g>
            <g id="Group-6" stroke-width="1" fill-rule="evenodd" transform="translate(33.417085, 80.201005)" fill="#000000">
                <circle id="Oval" fill-rule="nonzero" cx="16.4412101" cy="16.5080445" r="16.3743719"></circle>
                <circle id="Oval" fill-rule="nonzero" cx="182.189954" cy="16.5080445" r="16.3743719"></circle>
            </g>
            <path d="M149.329658,134.292208 C150.09233,130.022691 154.171726,127.179832 158.441242,127.942505 C162.710759,128.705177 165.553617,132.784572 164.790945,137.054089 C162.42974,150.27235 148.352758,159.566364 133.334171,159.566364 C118.315584,159.566364 104.238602,150.27235 101.877397,137.054089 C101.114724,132.784572 103.957583,128.705177 108.2271,127.942505 C112.430931,127.191566 116.450446,129.936072 117.30114,134.096174 L117.338684,134.292208 C118.212469,139.183745 125.295766,143.860334 133.334171,143.860334 C141.28123,143.860334 148.294765,139.289427 149.297472,134.458875 L149.329658,134.292208 Z" id="Path" fill="#000000" fill-rule="nonzero"></path>
        </g>
    </g>
</svg>